<!-- icon666.com - MILLIONS OF FREE VECTOR ICONS --><svg xmlns="http://www.w3.org/2000/svg" xmlns:xlink="http://www.w3.org/1999/xlink" version="1.1" id="Layer_1" x="0px" y="0px" viewBox="0 0 512 512" style="enable-background:new 0 0 512 512;" xml:space="preserve"><style type="text/css"> .st0{fill:#E6E6FF;} .st1{fill:#EA2335;} .st2{fill:#BDBDE5;} .st3{fill:#F8F8FF;} .st4{fill:#F4455A;} .st5{fill:#C12026;} .st6{fill:#390A44;} </style><g><path class="st0" d="M88,260.8c0,0-38.6-9.6-37.4,33.8c1,12,2.8,24.2,5.4,36c0,0-30-3.4-30.6,11.4c-0.6,14.6,11.4,16.6,11.4,16.6 s-12.6,30-4.6,30s24.6-8,24.6-8s-12.6,54.6,26,62.6s122-12.6,122-12.6s-5.4,20.4,29.4,14.6c0,0,31.8,19.2,32-21.2h112.6 c0,0,16.2,34,56.8,30s61.8-50,42.6-82.6c-19.4-32.6-59.4-28.6-72-24c-20-18.6-64-52.6-140-49.4c-76,3.4-131.4,22-160.6,4.6 C76,285.4,75.4,297.6,88,260.8z"></path><path class="st1" d="M99.4,234.6c18.2-48,49.4-117.4,78-135.4s105.4-92,190.6,0c0,0,70.6,17.4,67.4,107.4 c-5.4,38.6-15.8,66.6,0.2,135.4l-27.4,10.6c0,0-18.6-53.4-92-52.6c-73.4,0.6-150.6,14.6-172,12s-58-2.6-64-22.6 C74,269.4,79.6,287.2,99.4,234.6z"></path><path class="st2" d="M280.6,297.6c0,0,30,14.8,29,59.6s2,48.8-29,48.8s-54.2-6.2-42.6,8c27.6,33-4.2,28-20.6,28.6 c-16.2,0.4,5.6-32-6.6-34.6c-12-2.6-25.6,28-63,26.6c0,0,29.8,8.4,56.6-3.8c0,0,4.4,20.6,29.4,14.6c0,0,22,14.8,27-3.2 s16.6-15.6,16.6-15.6H379c0,0-7.2-58.4,29-73.8C408,352.6,363,289.6,280.6,297.6z"></path><path class="st3" d="M150,312c0,0,58.6-6.6,76-6.6s16,6.8,16,15c0,11.6-43.6,9.6-81.6,15c-38,5.6,7,8.2,39.6,7.8 c32.6-0.4,0,37.8-9,47.8c-33,37-112.4,76.2-129.4,15.4L53,384c0,0-26,10-24-4s2.6-26-3.6-38s15.6-14.6,23.2-13s-4-26,6.6-46.6 S90.4,256,90.4,256S69,288.8,88,300C107,311,150,312,150,312z"></path><path class="st4" d="M345.2,71.4c27.6,11.8-129.4-30.6-162.6,56.6c-20.8,54.6-43.8,183.4,47.6,172.6c-18.8,5.2-38,8.2-57.4,9 c-34,1.8-87.4,7.8-90.6-27c0,0,22.6-57.4,33.4-86.6S198.4,8,345.2,71.4z"></path><path class="st5" d="M348.4,303.6c0,0-15.4-142.6,73.2-148.2c0,0,14,14.6,8,51.6s-11,67-5.6,81c5.6,14,11.4,56.8,11.4,56.8 s-21-4.2-27.4,0S378.8,315.4,348.4,303.6z"></path><path class="st3" d="M474.4,373.8c-11.2-3.2-23-4.2-34.6-3.2c0-0.6,0-1.4,0-2.2c0-4.4-1-7.8-2.2-7.8s-2.2,3.6-2.2,7.8 c0,0.2,0,0.2,0,0.4c-0.4-0.4-0.6-0.8-1-1.2c-2.8-2.8-6.2-4-7.4-2.6s-0.2,4.6,2.6,7.4l0,0c-5.6,1.6-11,4.2-15.6,7.6 c-0.2-3.2-1.4-5.4-2.8-5.6c-1.8,0-3.2,3-3.4,6.6v0.2c-2.4-1.8-4.8-2.6-5.8-1.6c-0.6,0.8-0.8,2-0.4,3c-2-1.4-3.6-2-4.2-1.4 c-0.8,0.8,1,4,4.2,7l0.2,0.2c-0.6,0-1,0-1.6,0c-4,0.2-7.2,1.8-7,3.6c0,1.2,1.2,2,3,2.6c-0.6,0.2-1.2,0.8-1.4,1.6c0,1,0.6,2,1.4,2.6 c-2.4,0-4.2,0.6-4.2,1.4c-0.2,1,2.6,2.2,6.2,3c-0.2,0.8-0.4,1.4-0.6,2c-2.4,2.2-3.4,4.8-2.4,6.2c0.2,0.4,0.6,0.6,1,0.6 c-3.4,29.4,27.8,41.6,27.8,41.6s45.4-0.6,54-26C486.6,403,485.6,381,474.4,373.8z"></path><ellipse transform="matrix(0.9886 -0.1506 0.1506 0.9886 -50.8244 72.1015)" class="st0" cx="450.622" cy="371.608" rx="2.2" ry="7.8"></ellipse><ellipse transform="matrix(0.8315 -0.5556 0.5556 0.8315 -127.9115 314.2917)" class="st0" cx="454.077" cy="367.977" rx="3.4" ry="7.2"></ellipse><path class="st6" d="M444.2,337.2c-14.8-59.2-10.4-77.2-6.2-94.8c1.4-5,2.4-10.2,3.2-15.4c8.2-58.2-13.8-125.6-70.2-138.2 c-7.8-9.2-38.2-40.8-83-40.8c-24,0-47.8,5.4-69.4,16c-41.4,20.4-95.2,62-117.2,144.4c-3.6,13.6-8,26.8-13.4,39.8 c-15.6,1-27.4,7-35,17.6c-11.8,16.2-10.4,39.6-7.8,54.4c-0.4,0-0.8,0-1.2,0c-15.4,0-28,10.8-28,24c0.2,7.8,4.4,15,11,19 c-6.2,9.6-7,19.4-1.6,25.8c4.2,5.2,11.4,7,19.6,5.4c1.4-0.2,2.6-0.6,4-1c-2.6,17.2-1.8,41.4,19.4,52c8,4,20.6,5.4,35.4,5.4 c33.4,0,76.6-7.8,94.6-11.2c1.2,4.8,4.2,8.8,8.2,11.6c3.2,2,7,3.2,10.8,3c4,0,8-1,11.6-3c6,6.4,13.4,10,20.4,10 c2.6,0,5.2-0.4,7.8-1.4c9.6-3.8,14.8-14.4,14.4-26.8c4.2,0.2,8.2,0.4,12.2,0.4c11.4,0,21.8-0.8,31.8-1.4c18.8-1.4,36.4-2.6,61,0.4 c17.6,30.6,56.8,41.2,87.4,23.6s41.2-56.8,23.6-87.4C478.2,352,462.4,340.8,444.2,337.2z M225.6,78.4C245,69,266.4,64,288,64 c43.4,0,72,36.6,72.4,37c1.2,1.6,3,2.6,5,3c48.8,9,67.4,69,60.2,120.8c-0.8,4.6-1.6,9.4-2.8,13.8c-4.4,18-9.2,38.2,5,97.4 c-5.8,0.4-11.4,1.6-16.8,3.4c-0.2-0.4-0.6-0.8-0.8-1.2c-2.8-4.6-6.2-8.8-10.2-12.4c-54.8-46-128.2-36.4-193-28 c-45,5.8-87.6,11.4-113.8-4c-5-3-5.8-4.2-5.8-4.2c-0.2-1.6,2.8-7.4,5.2-12.6c2.2-4.4,5-9.8,8-16.8c0.4-0.6,0.6-1.2,0.8-1.8 c6.4-14.8,11.6-30.2,15.6-45.8C137.4,135.8,187.2,97.2,225.6,78.4z M41.2,352.2c-5.4-0.8-9.4-4.2-9.4-7.8c0-4.2,5.6-8,12-8 c2.8,0,5.4,0.6,7.8,2c3.46,2.103,7.802,1.598,10.392-1.048c2.081-2.126,2.766-5.362,1.808-8.352c-3-9.8-8.8-38.6,2.4-53.6 c3.4-4.6,8.4-8,14.2-9.4c-0.8,1.4-1.4,2.8-2,4c-7.8,15.8-13,26.2,6.8,37.8C116,326,161.2,320,209,314c61.6-8,131.2-17,180.6,24.4 c2.8,2.6,5,5.6,7,8.8c-22.4,15-33,42.2-26.6,68.2c-22-2.2-39.2-1-55.6,0.2c-15.4,1.4-31,1.8-46.6,0.8c-0.8-1.8-1.6-3.4-2.6-5.2 c-2.2-3.8-7.2-5.2-11-3c-3.8,2.2-5.2,7.2-3,11c0.8,1.2,1.4,2.6,2,4c4,10,2.2,19.6-2.2,21.4c-3.2,1.2-9.2-1.6-13.6-8.6 c0-0.2-0.2-0.2-0.4-0.4s-0.2-0.2-0.2-0.4l-0.2-0.2c-0.2-0.2-0.4-0.4-0.6-0.6c-0.2-0.2-0.4-0.4-0.6-0.4s-0.4-0.2-0.6-0.4 c-0.2-0.2-0.4-0.2-0.6-0.4s-0.4-0.2-0.6-0.2s-0.4-0.2-0.8-0.2s-0.6-0.2-0.8-0.2s-0.4,0-0.8,0c-0.2,0-0.6,0-0.8,0s-0.4,0-0.8,0 c-0.2,0-0.6,0-0.8,0.2c-0.2,0-0.4,0.2-0.8,0.2s-0.4,0.2-0.8,0.2c-0.2,0.2-0.4,0.2-0.8,0.4c0,0-0.2,0-0.2,0.2 c-0.2,0-0.2,0.2-0.4,0.4c-0.2,0.2-0.2,0.2-0.4,0.2c-4.4,3.6-8.4,4.4-10.2,3.2c-2-1.2-3-6-0.8-12c1.4-4.2-0.8-8.8-5-10.2 c-4.2-1.4-8.8,0.8-10.2,5c-0.4,1-0.6,1.8-0.8,2.8c-39.6,8-105,16.8-122.8,7.8c-21.2-10.6-7.2-50.8-7-51.2c1.6-4.2-0.6-8.8-4.8-10.2 c-2.8-1-6-0.4-8,1.6c-0.4,0.2-0.6,0.6-1,0.8c-8,6.6-15,7.6-17,7c-0.2-1.8,1.6-7.2,7.8-13.2c2.603-2.27,3.471-5.903,2.188-8.938 C46.681,354.242,44.129,352.444,41.2,352.2z M432,448c-26.6,0-48-21.4-48-48s21.4-48,48-48s48,21.4,48,48S458.4,448,432,448z"></path></g></svg>