<svg viewBox="0 0 48 24" xmlns="http://www.w3.org/2000/svg" xmlns:xlink="http://www.w3.org/1999/xlink" width="48.000000" height="24.000000" fill="none" customFrame="#000000">
	<path id="" d="M15.375 14.5664Q15.5039 15 15.5273 15.2969Q15.5508 15.5938 15.5508 16.3125Q15.5508 17.4336 14.8633 18.1133Q14.1758 18.793 13.0547 18.9023Q12.5273 18.9531 11.5664 18.9531Q10.5938 18.9531 9.61719 18.9023Q8.97656 18.8711 8.63281 18.7461Q8.28906 18.6172 8.12891 18.2969Q7.96875 17.9766 7.96875 17.3672L7.96875 14.1992L6.39844 14.2656L6.39844 14.7617L5.375 14.8555L5.375 16.3125Q5.375 17.6562 5.13281 18.1523Q4.89453 18.6484 4.16797 18.7852Q3.44141 18.9219 1.375 18.9844L0.976562 19Q0.878906 17.9766 0.734375 17.3359Q0.59375 16.6953 0.191406 15.9922Q0.929688 15.9922 1.23828 15.9375Q1.55078 15.8789 1.62109 15.7617Q1.69531 15.6406 1.69531 15.3672L1.69531 15.1289L0.480469 15.207Q0.382812 13.3047 0.160156 12.2148Q1.15234 12.1836 1.69531 12.1523L1.69531 10.9531L0.480469 10.9531L0.480469 8.12109L1.69531 8.12109L1.69531 6.80859L5.375 6.80859L5.375 8.12109L6.39844 8.12109L6.39844 10.9531L5.375 10.9531L5.375 11.9922L6.17578 11.9453L6.17578 11.1445L7.96875 11.0781L7.96875 10.3438L6.86328 10.375Q6.86328 9.38281 6.83984 8.67188Q6.81641 7.96094 6.70312 7.35156Q9.74219 7.25781 11.5742 7.17969Q13.4062 7.09766 15.3125 6.92188Q15.1992 7.52734 15.168 8.3125Q15.1367 9.09766 15.1367 10.1992Q12.6406 10.2305 11.375 10.2656L11.375 10.9688L15.375 10.8242L15.375 13.9609L11.375 14.0898L11.375 15.3672Q11.375 15.4961 11.4531 15.5469Q11.5352 15.5938 11.8398 15.5938Q12.207 15.5938 12.3828 15.5781Q12.5586 15.5586 12.5586 15.5273Q12.5273 15.1133 12.2383 14.3438Q13.0391 14.4727 15.375 14.5664ZM32.2383 15.3516Q31.6953 15.9453 31.3516 16.5703Q31.0078 17.1914 30.5742 18.168L30.3984 18.5664Q27.793 17.7852 25.9219 16.6484L25.9219 18.9531L22.0781 18.9531L22.0781 16.6797Q20.2734 17.8008 17.6641 18.5664L17.4883 18.168Q17.0547 17.1914 16.7109 16.5703Q16.3672 15.9453 15.8242 15.3516Q17.7266 15.0469 19.0703 14.7031Q20.4141 14.3594 21.4258 13.8945L16.4336 13.8945L16.4336 10.793L22.0781 10.793L22.0781 6.71094L25.9219 6.71094L25.9219 10.793L31.5664 10.793L31.5664 13.8945L26.6406 13.8945Q27.6484 14.3594 28.9922 14.7031Q30.3359 15.0469 32.2383 15.3516ZM18.5117 10.7617Q18.1445 9.11328 17.6641 7.32031L21.2969 6.95312Q21.7109 8.96875 21.8398 10.3125L18.5117 10.7617ZM30.4336 7.32031Q29.9531 9.11328 29.582 10.7617L26.2578 10.3125Q26.3828 8.96875 26.8008 6.95312L30.4336 7.32031ZM47.7266 11.3203Q47.5352 12.3125 47.4453 12.9844Q47.3594 13.6562 47.2461 14.6953L46.8633 14.6172L46.8633 19.1602L43.5352 19.1602L43.5352 19L40.8477 19L40.8477 19.1602L37.5352 19.1602L37.5352 14.7773Q37.375 14.8086 37.0547 14.8398L37.0234 14.1992L36.3516 16.8242L35.793 19.0469L35.3438 18.9531Q33.2656 18.5352 31.9531 18.3594Q32.3984 17.3047 32.7109 16.3438Q33.0234 15.3828 33.3906 14.0898Q33.5039 13.6094 33.7109 12.9531L34.9766 13.1289Q33.9023 12.6172 32.1133 12.2148L33.9219 9.76953Q34.8164 9.99219 36.3047 10.5664Q36.5273 10.6484 36.7891 10.7539Q37.0547 10.8555 37.3594 10.9688Q37.2461 9.94531 37.0234 8.79297L36.1758 10.1992Q34.2383 9.43359 32.0977 9.07812L33.7266 6.51953Q34.4961 6.69531 36.1289 7.22266Q37.1836 7.57422 37.6641 7.71875L37.4414 8.10547Q39.9375 7.59375 41.0234 6.74219L43.6797 6.74219L43.4883 7.16016L46.3359 7.14453L47.3125 9.09766Q46.5938 10.1367 45.2656 11.2383Q45.9531 11.3516 46.832 11.3516Q47.1211 11.3516 47.7266 11.3203ZM41.6641 9.33594Q41.9023 9.75391 42.2383 10.0234Q42.5938 9.75391 42.9453 9.33594L41.6797 9.33594L41.6641 9.33594ZM37.4258 11.4961Q37.3906 11.1445 37.3594 10.9844L36.8789 11.6719Q37.7109 11.7031 38.5586 11.5703Q39.4062 11.4336 40.1133 11.1758Q40.0781 11.1445 39.6641 10.6328Q38.5742 11.1758 37.4258 11.4961ZM35.7422 13.2227L36.9609 13.3984Q36.832 12.375 36.7344 11.8633L35.7422 13.2227ZM43.8867 13.7344Q43.1211 13.4336 42.4961 13.0625Q41.8242 13.4141 41.1055 13.7344L43.8867 13.7344ZM40.8477 15.7852L40.8477 16.5039L43.5352 16.5039L43.5352 15.7852L40.8477 15.7852Z" fill="rgb(255,255,255)" fill-rule="nonzero" />
</svg>
