<svg viewBox="0 0 48 17" xmlns="http://www.w3.org/2000/svg" xmlns:xlink="http://www.w3.org/1999/xlink" width="48.000000" height="17.000000" fill="none" customFrame="#000000">
	<path id="" d="M4.33643 3.78711L3.05811 3.78711Q2.88037 3.78711 2.78125 3.75977Q2.68213 3.73242 2.6377 3.66064Q2.59326 3.58887 2.58301 3.45557Q2.57275 3.32227 2.57275 3.11719Q2.57275 2.91211 2.58301 2.78223Q2.59326 2.65234 2.6377 2.57715Q2.68213 2.50195 2.78125 2.47461Q2.88037 2.44727 3.05811 2.44727L5.40283 2.44727L5.56006 2.44727L8.06201 2.44727Q8.23975 2.44727 8.33887 2.47461Q8.43799 2.50195 8.48584 2.57715Q8.53369 2.65234 8.54395 2.78223Q8.5542 2.91211 8.5542 3.11719Q8.5542 3.32227 8.54395 3.45557Q8.53369 3.58887 8.48584 3.66064Q8.43799 3.73242 8.33887 3.75977Q8.23975 3.78711 8.06201 3.78711L6.78369 3.78711L6.51025 13.5693Q6.50342 13.7061 6.47266 13.7881Q6.44189 13.8701 6.34619 13.918Q6.25049 13.9658 6.0625 13.9829Q5.87451 14 5.56006 14Q5.24561 14 5.06104 13.9863Q4.87646 13.9727 4.77734 13.9248Q4.67822 13.877 4.65088 13.7847Q4.62354 13.6924 4.6167 13.5352L4.33643 3.78711ZM9.64111 4.66895Q9.62744 4.15625 9.81201 3.73242Q9.99658 3.30859 10.3965 3.00781Q10.7964 2.70703 11.4287 2.53955Q12.061 2.37207 12.9497 2.37207Q13.8315 2.37207 14.4639 2.53955Q15.0962 2.70703 15.4995 3.00781Q15.9028 3.30859 16.0874 3.73242Q16.272 4.15625 16.2583 4.66895L16.0601 11.915Q16.0464 12.3594 15.8687 12.7559Q15.6909 13.1523 15.3184 13.4463Q14.9458 13.7402 14.3613 13.9111Q13.7769 14.082 12.9497 14.082Q12.1226 14.082 11.5347 13.9111Q10.9468 13.7402 10.5742 13.4463Q10.2017 13.1523 10.0239 12.7559Q9.84619 12.3594 9.83252 11.915L9.64111 4.66895ZM11.8491 11.9766Q11.8423 12.2637 11.9004 12.4551Q11.9585 12.6465 12.0918 12.7593Q12.2251 12.8721 12.437 12.9199Q12.6489 12.9678 12.9497 12.9678Q13.2505 12.9678 13.4624 12.9199Q13.6743 12.8721 13.8076 12.7593Q13.9409 12.6465 13.999 12.4551Q14.0571 12.2637 14.0503 11.9766L13.8521 4.45703Q13.8452 4.15625 13.7837 3.97852Q13.7222 3.80078 13.6094 3.70508Q13.4966 3.60938 13.3325 3.57861Q13.1685 3.54785 12.9497 3.54785Q12.731 3.54785 12.5669 3.57861Q12.4028 3.60938 12.29 3.70508Q12.1772 3.80078 12.1157 3.97852Q12.0542 4.15625 12.0474 4.45703L11.8491 11.9766ZM17.9331 3.01465Q17.9263 2.83691 17.981 2.72754Q18.0356 2.61816 18.1758 2.55664Q18.3159 2.49512 18.5586 2.47119Q18.8013 2.44727 19.1772 2.44727Q19.519 2.44727 19.7515 2.46436Q19.9839 2.48145 20.1309 2.52246Q20.2778 2.56348 20.3564 2.63867Q20.4351 2.71387 20.4692 2.82324L22.3696 8.63379L22.4448 8.63379L24.3179 2.82324Q24.3452 2.71387 24.4204 2.63867Q24.4956 2.56348 24.6392 2.52246Q24.7827 2.48145 25.0015 2.46436Q25.2202 2.44727 25.5415 2.44727Q25.9448 2.44727 26.1909 2.47119Q26.437 2.49512 26.5737 2.55664Q26.7104 2.61816 26.7549 2.72754Q26.7993 2.83691 26.7925 3.01465L26.4917 13.5352Q26.4849 13.6924 26.4575 13.7847Q26.4302 13.877 26.3379 13.9248Q26.2456 13.9727 26.0747 13.9863Q25.9038 14 25.6099 14Q25.3228 14 25.1484 13.9863Q24.9741 13.9727 24.8853 13.9248Q24.7964 13.877 24.7656 13.7847Q24.7349 13.6924 24.7349 13.5352L24.7827 6.17285L24.6938 6.17285L23.1216 11.6348Q23.0806 11.7646 23.0361 11.8467Q22.9917 11.9287 22.9097 11.9731Q22.8276 12.0176 22.6875 12.0312Q22.5474 12.0449 22.3149 12.0449Q22.1099 12.0449 21.9868 12.0278Q21.8638 12.0107 21.792 11.9663Q21.7202 11.9219 21.6792 11.8433Q21.6382 11.7646 21.5972 11.6348L20.0454 6.17285L19.9565 6.17285L19.9907 13.5352Q19.9907 13.6924 19.96 13.7847Q19.9292 13.877 19.8369 13.9248Q19.7446 13.9727 19.5737 13.9863Q19.4028 14 19.1089 14Q18.8149 14 18.644 13.9863Q18.4731 13.9727 18.3809 13.9248Q18.2886 13.877 18.2612 13.7847Q18.2339 13.6924 18.2271 13.5352L17.9331 3.01465ZM28.4946 3.01465Q28.4878 2.83691 28.5288 2.72754Q28.5698 2.61816 28.7031 2.55664Q28.8364 2.49512 29.0825 2.47119Q29.3286 2.44727 29.7388 2.44727Q30.1421 2.44727 30.3882 2.47119Q30.6343 2.49512 30.7676 2.55664Q30.9009 2.61816 30.9453 2.72754Q30.9897 2.83691 30.9829 3.01465L30.6821 13.5352Q30.6821 13.6924 30.6514 13.7847Q30.6206 13.877 30.5215 13.9248Q30.4224 13.9727 30.2378 13.9863Q30.0532 14 29.7388 14Q29.4243 14 29.2363 13.9863Q29.0483 13.9727 28.9526 13.9248Q28.8569 13.877 28.8262 13.7847Q28.7954 13.6924 28.7886 13.5352L28.4946 3.01465ZM32.6919 3.01465Q32.6851 2.83691 32.7261 2.72754Q32.7671 2.61816 32.9004 2.55664Q33.0337 2.49512 33.2798 2.47119Q33.5259 2.44727 33.936 2.44727Q34.3394 2.44727 34.5854 2.47119Q34.8315 2.49512 34.9648 2.55664Q35.0981 2.61816 35.1426 2.72754Q35.187 2.83691 35.1802 3.01465L34.8999 12.7285L36.6841 12.7285Q36.8618 12.7285 36.9609 12.7593Q37.0601 12.79 37.1045 12.8618Q37.1489 12.9336 37.1592 13.0566Q37.1694 13.1797 37.1694 13.3643Q37.1694 13.5488 37.1592 13.6719Q37.1489 13.7949 37.1045 13.8667Q37.0601 13.9385 36.9609 13.9692Q36.8618 14 36.6841 14L33.936 14Q33.6216 14 33.4336 13.9863Q33.2456 13.9727 33.1499 13.9248Q33.0542 13.877 33.0234 13.7847Q32.9927 13.6924 32.9858 13.5352L32.6919 3.01465ZM38.2632 4.66895Q38.2495 4.15625 38.4341 3.73242Q38.6187 3.30859 39.0186 3.00781Q39.4185 2.70703 40.0508 2.53955Q40.6831 2.37207 41.5718 2.37207Q42.4536 2.37207 43.0859 2.53955Q43.7183 2.70703 44.1216 3.00781Q44.5249 3.30859 44.7095 3.73242Q44.894 4.15625 44.8804 4.66895L44.6821 11.915Q44.6685 12.3594 44.4907 12.7559Q44.313 13.1523 43.9404 13.4463Q43.5679 13.7402 42.9834 13.9111Q42.3989 14.082 41.5718 14.082Q40.7446 14.082 40.1567 13.9111Q39.5688 13.7402 39.1963 13.4463Q38.8237 13.1523 38.646 12.7559Q38.4683 12.3594 38.4546 11.915L38.2632 4.66895ZM40.4712 11.9766Q40.4644 12.2637 40.5225 12.4551Q40.5806 12.6465 40.7139 12.7593Q40.8472 12.8721 41.0591 12.9199Q41.271 12.9678 41.5718 12.9678Q41.8726 12.9678 42.0845 12.9199Q42.2964 12.8721 42.4297 12.7593Q42.563 12.6465 42.6211 12.4551Q42.6792 12.2637 42.6724 11.9766L42.4741 4.45703Q42.4673 4.15625 42.4058 3.97852Q42.3442 3.80078 42.2314 3.70508Q42.1187 3.60938 41.9546 3.57861Q41.7905 3.54785 41.5718 3.54785Q41.353 3.54785 41.189 3.57861Q41.0249 3.60938 40.9121 3.70508Q40.7993 3.80078 40.7378 3.97852Q40.6763 4.15625 40.6694 4.45703L40.4712 11.9766Z" fill="rgb(241,4,4)" fill-rule="nonzero" />
</svg>
