<svg viewBox="0 0 9 14" xmlns="http://www.w3.org/2000/svg" xmlns:xlink="http://www.w3.org/1999/xlink" width="9.000000" height="14.000000" fill="none" customFrame="#000000">
	<path id="" d="M0.473369 9L1.99778 9L1.99778 2.88525L1.69358 2.88525L0.196513 3.12109L0.196513 3.55518L0.473369 3.72266L0.473369 9ZM2.61064 9L4.11454 9L4.11454 5.03174L3.33525 5.03174L2.33378 5.30859L2.33378 5.80762L2.61064 5.98193L2.61064 9ZM3.2874 4.60449L3.46513 4.60449L4.26494 3.83545L4.26494 3.67139L3.46513 2.90576L3.2874 2.90576L2.52519 3.67139L2.52519 3.83545L3.2874 4.60449ZM7.15455 9Q7.54078 9 7.84156 8.83936Q8.14234 8.67871 8.33375 8.39502Q8.52516 8.10791 8.62086 7.73877Q8.71998 7.36621 8.71998 6.92871Q8.71998 5.99561 8.35767 5.46924Q7.99879 4.93945 7.22633 4.93945Q7.04517 4.93945 6.88453 4.98389Q6.72389 5.0249 6.59742 5.09668Q6.47096 5.16504 6.38209 5.24023Q6.29322 5.31201 6.21803 5.39746L6.21803 2.88525L5.91724 2.88525L4.41676 3.12109L4.41676 3.55518L4.69703 3.72266L4.69703 9L6.21803 9L6.21803 8.78125Q6.6316 9 7.15455 9ZM6.46754 8.35059Q6.40943 8.35059 6.34791 8.34375Q6.2898 8.33691 6.21803 8.31982L6.21803 5.89307Q6.39576 5.7666 6.57008 5.7666Q6.79908 5.7666 6.94605 5.98535Q7.09303 6.20068 7.09303 6.60059L7.09303 7.39355Q7.09303 8.35059 6.46754 8.35059Z" fill="rgb(84,84,84)" fill-rule="nonzero" />
</svg>
